# xmcd CD database file generated by Grip 3.3.1
# 
# Track frame offsets:
#       150
#       15434
#       31376
#       48031
#       64112
#       80738
#       92997
#       112137
#       125911
#       138574
# 
# Disc length: 2089 seconds
# 
# Revision: 0
# Processed by: cddbd v1.5.2PL0 Copyright (c) Steve Scherf et al.
# Submitted via: Grip 3.3.1
# 
DISCID=8b08270a
DTITLE=Various Artist - Country Love #1
DYEAR=2003
DGENRE=Country
TTITLE0=Johnny Paycheck - He Stopped Loving Her Today
TTITLE1=Donnay Fargo - You Needed Me
TTITLE2=Faron Young - You Were Always On My Mind
TTITLE3=Billy Joe Royal - Crying
TTITLE4=David Houston - For The Good Times
TTITLE5=Liz Anderson - Crazy
TTITLE6=Nat Stuckey - I Believe In You
TTITLE7=Roy Drusky - Since I Fell For You
TTITLE8=Sandy Posey - I Fall To Pieces
TTITLE9=Tommy Overstreet - Georgia
EXTD=
EXTT0=
EXTT1=
EXTT2=
EXTT3=
EXTT4=
EXTT5=
EXTT6=
EXTT7=
EXTT8=
EXTT9=
PLAYORDER=
